<svg id="visual" viewBox="0 0 1920 1080" width="1920" height="1080" xmlns="http://www.w3.org/2000/svg" xmlns:xlink="http://www.w3.org/1999/xlink" version="1.1"><rect x="0" y="0" width="1920" height="1080" fill="#241422"></rect><path d="M0 819L16 819.5C32 820 64 821 96 830.2C128 839.3 160 856.7 192 859.3C224 862 256 850 288 844.5C320 839 352 840 384 833.3C416 826.7 448 812.3 480 804C512 795.7 544 793.3 576 794.7C608 796 640 801 672 808.3C704 815.7 736 825.3 768 829.5C800 833.7 832 832.3 864 823C896 813.7 928 796.3 960 786.7C992 777 1024 775 1056 788.8C1088 802.7 1120 832.3 1152 837.2C1184 842 1216 822 1248 823.2C1280 824.3 1312 846.7 1344 846.5C1376 846.3 1408 823.7 1440 818.7C1472 813.7 1504 826.3 1536 836.2C1568 846 1600 853 1632 855.2C1664 857.3 1696 854.7 1728 857.2C1760 859.7 1792 867.3 1824 860.3C1856 853.3 1888 831.7 1904 820.8L1920 810L1920 1081L1904 1081C1888 1081 1856 1081 1824 1081C1792 1081 1760 1081 1728 1081C1696 1081 1664 1081 1632 1081C1600 1081 1568 1081 1536 1081C1504 1081 1472 1081 1440 1081C1408 1081 1376 1081 1344 1081C1312 1081 1280 1081 1248 1081C1216 1081 1184 1081 1152 1081C1120 1081 1088 1081 1056 1081C1024 1081 992 1081 960 1081C928 1081 896 1081 864 1081C832 1081 800 1081 768 1081C736 1081 704 1081 672 1081C640 1081 608 1081 576 1081C544 1081 512 1081 480 1081C448 1081 416 1081 384 1081C352 1081 320 1081 288 1081C256 1081 224 1081 192 1081C160 1081 128 1081 96 1081C64 1081 32 1081 16 1081L0 1081Z" fill="#79032a"></path><path d="M0 826L16 829.8C32 833.7 64 841.3 96 842.7C128 844 160 839 192 835.2C224 831.3 256 828.7 288 825.5C320 822.3 352 818.7 384 826.2C416 833.7 448 852.3 480 855C512 857.7 544 844.3 576 841.5C608 838.7 640 846.3 672 845.3C704 844.3 736 834.7 768 835C800 835.3 832 845.7 864 853.5C896 861.3 928 866.7 960 869.7C992 872.7 1024 873.3 1056 871.5C1088 869.7 1120 865.3 1152 865.2C1184 865 1216 869 1248 865.5C1280 862 1312 851 1344 841.3C1376 831.7 1408 823.3 1440 825C1472 826.7 1504 838.3 1536 845.8C1568 853.3 1600 856.7 1632 848.2C1664 839.7 1696 819.3 1728 810C1760 800.7 1792 802.3 1824 805C1856 807.7 1888 811.3 1904 813.2L1920 815L1920 1081L1904 1081C1888 1081 1856 1081 1824 1081C1792 1081 1760 1081 1728 1081C1696 1081 1664 1081 1632 1081C1600 1081 1568 1081 1536 1081C1504 1081 1472 1081 1440 1081C1408 1081 1376 1081 1344 1081C1312 1081 1280 1081 1248 1081C1216 1081 1184 1081 1152 1081C1120 1081 1088 1081 1056 1081C1024 1081 992 1081 960 1081C928 1081 896 1081 864 1081C832 1081 800 1081 768 1081C736 1081 704 1081 672 1081C640 1081 608 1081 576 1081C544 1081 512 1081 480 1081C448 1081 416 1081 384 1081C352 1081 320 1081 288 1081C256 1081 224 1081 192 1081C160 1081 128 1081 96 1081C64 1081 32 1081 16 1081L0 1081Z" fill="#71062d"></path><path d="M0 887L16 890.2C32 893.3 64 899.7 96 890.3C128 881 160 856 192 846C224 836 256 841 288 847.3C320 853.7 352 861.3 384 857.7C416 854 448 839 480 836.3C512 833.7 544 843.3 576 858C608 872.7 640 892.3 672 901.2C704 910 736 908 768 904C800 900 832 894 864 887.2C896 880.3 928 872.7 960 874.5C992 876.3 1024 887.7 1056 892C1088 896.3 1120 893.7 1152 888.8C1184 884 1216 877 1248 877.5C1280 878 1312 886 1344 893.3C1376 900.7 1408 907.3 1440 908.5C1472 909.7 1504 905.3 1536 900.5C1568 895.7 1600 890.3 1632 884.8C1664 879.3 1696 873.7 1728 864.2C1760 854.7 1792 841.3 1824 836.2C1856 831 1888 834 1904 835.5L1920 837L1920 1081L1904 1081C1888 1081 1856 1081 1824 1081C1792 1081 1760 1081 1728 1081C1696 1081 1664 1081 1632 1081C1600 1081 1568 1081 1536 1081C1504 1081 1472 1081 1440 1081C1408 1081 1376 1081 1344 1081C1312 1081 1280 1081 1248 1081C1216 1081 1184 1081 1152 1081C1120 1081 1088 1081 1056 1081C1024 1081 992 1081 960 1081C928 1081 896 1081 864 1081C832 1081 800 1081 768 1081C736 1081 704 1081 672 1081C640 1081 608 1081 576 1081C544 1081 512 1081 480 1081C448 1081 416 1081 384 1081C352 1081 320 1081 288 1081C256 1081 224 1081 192 1081C160 1081 128 1081 96 1081C64 1081 32 1081 16 1081L0 1081Z" fill="#680a2f"></path><path d="M0 847L16 855.7C32 864.3 64 881.7 96 895.7C128 909.7 160 920.3 192 913.7C224 907 256 883 288 872.3C320 861.7 352 864.3 384 862.5C416 860.7 448 854.3 480 865.3C512 876.3 544 904.7 576 904.7C608 904.7 640 876.3 672 876C704 875.7 736 903.3 768 911.5C800 919.7 832 908.3 864 906C896 903.7 928 910.3 960 908.5C992 906.7 1024 896.3 1056 896.7C1088 897 1120 908 1152 904.2C1184 900.3 1216 881.7 1248 872C1280 862.3 1312 861.7 1344 870C1376 878.3 1408 895.7 1440 903C1472 910.3 1504 907.7 1536 907.7C1568 907.7 1600 910.3 1632 906.3C1664 902.3 1696 891.7 1728 889.2C1760 886.7 1792 892.3 1824 887.8C1856 883.3 1888 868.7 1904 861.3L1920 854L1920 1081L1904 1081C1888 1081 1856 1081 1824 1081C1792 1081 1760 1081 1728 1081C1696 1081 1664 1081 1632 1081C1600 1081 1568 1081 1536 1081C1504 1081 1472 1081 1440 1081C1408 1081 1376 1081 1344 1081C1312 1081 1280 1081 1248 1081C1216 1081 1184 1081 1152 1081C1120 1081 1088 1081 1056 1081C1024 1081 992 1081 960 1081C928 1081 896 1081 864 1081C832 1081 800 1081 768 1081C736 1081 704 1081 672 1081C640 1081 608 1081 576 1081C544 1081 512 1081 480 1081C448 1081 416 1081 384 1081C352 1081 320 1081 288 1081C256 1081 224 1081 192 1081C160 1081 128 1081 96 1081C64 1081 32 1081 16 1081L0 1081Z" fill="#5f0d30"></path><path d="M0 891L16 895.3C32 899.7 64 908.3 96 907.2C128 906 160 895 192 901C224 907 256 930 288 941.3C320 952.7 352 952.3 384 950.8C416 949.3 448 946.7 480 945.2C512 943.7 544 943.3 576 942.3C608 941.3 640 939.7 672 929.2C704 918.7 736 899.3 768 889.5C800 879.7 832 879.3 864 889C896 898.7 928 918.3 960 926.8C992 935.3 1024 932.7 1056 928.3C1088 924 1120 918 1152 912.7C1184 907.3 1216 902.7 1248 902C1280 901.3 1312 904.7 1344 911.2C1376 917.7 1408 927.3 1440 927.7C1472 928 1504 919 1536 916.3C1568 913.7 1600 917.3 1632 920.7C1664 924 1696 927 1728 928.3C1760 929.7 1792 929.3 1824 932C1856 934.7 1888 940.3 1904 943.2L1920 946L1920 1081L1904 1081C1888 1081 1856 1081 1824 1081C1792 1081 1760 1081 1728 1081C1696 1081 1664 1081 1632 1081C1600 1081 1568 1081 1536 1081C1504 1081 1472 1081 1440 1081C1408 1081 1376 1081 1344 1081C1312 1081 1280 1081 1248 1081C1216 1081 1184 1081 1152 1081C1120 1081 1088 1081 1056 1081C1024 1081 992 1081 960 1081C928 1081 896 1081 864 1081C832 1081 800 1081 768 1081C736 1081 704 1081 672 1081C640 1081 608 1081 576 1081C544 1081 512 1081 480 1081C448 1081 416 1081 384 1081C352 1081 320 1081 288 1081C256 1081 224 1081 192 1081C160 1081 128 1081 96 1081C64 1081 32 1081 16 1081L0 1081Z" fill="#561030"></path><path d="M0 913L16 916.3C32 919.7 64 926.3 96 925C128 923.7 160 914.3 192 911.5C224 908.7 256 912.3 288 916.3C320 920.3 352 924.7 384 932.7C416 940.7 448 952.3 480 951.8C512 951.3 544 938.7 576 937C608 935.3 640 944.7 672 941.7C704 938.7 736 923.3 768 925.8C800 928.3 832 948.7 864 948.2C896 947.7 928 926.3 960 921.5C992 916.7 1024 928.3 1056 937.5C1088 946.7 1120 953.3 1152 953.2C1184 953 1216 946 1248 937.8C1280 929.7 1312 920.3 1344 918.2C1376 916 1408 921 1440 922.7C1472 924.3 1504 922.7 1536 928.2C1568 933.7 1600 946.3 1632 945.3C1664 944.3 1696 929.7 1728 929C1760 928.3 1792 941.7 1824 947.3C1856 953 1888 951 1904 950L1920 949L1920 1081L1904 1081C1888 1081 1856 1081 1824 1081C1792 1081 1760 1081 1728 1081C1696 1081 1664 1081 1632 1081C1600 1081 1568 1081 1536 1081C1504 1081 1472 1081 1440 1081C1408 1081 1376 1081 1344 1081C1312 1081 1280 1081 1248 1081C1216 1081 1184 1081 1152 1081C1120 1081 1088 1081 1056 1081C1024 1081 992 1081 960 1081C928 1081 896 1081 864 1081C832 1081 800 1081 768 1081C736 1081 704 1081 672 1081C640 1081 608 1081 576 1081C544 1081 512 1081 480 1081C448 1081 416 1081 384 1081C352 1081 320 1081 288 1081C256 1081 224 1081 192 1081C160 1081 128 1081 96 1081C64 1081 32 1081 16 1081L0 1081Z" fill="#4d1230"></path><path d="M0 934L16 935.8C32 937.7 64 941.3 96 949.2C128 957 160 969 192 966.7C224 964.3 256 947.7 288 939.5C320 931.3 352 931.7 384 935.3C416 939 448 946 480 955C512 964 544 975 576 976.2C608 977.3 640 968.7 672 964C704 959.3 736 958.7 768 954C800 949.3 832 940.7 864 942.2C896 943.7 928 955.3 960 964.3C992 973.3 1024 979.7 1056 983.5C1088 987.3 1120 988.7 1152 982C1184 975.3 1216 960.7 1248 955.5C1280 950.3 1312 954.7 1344 961.7C1376 968.7 1408 978.3 1440 974.5C1472 970.7 1504 953.3 1536 950.3C1568 947.3 1600 958.7 1632 965C1664 971.3 1696 972.7 1728 973.8C1760 975 1792 976 1824 969.5C1856 963 1888 949 1904 942L1920 935L1920 1081L1904 1081C1888 1081 1856 1081 1824 1081C1792 1081 1760 1081 1728 1081C1696 1081 1664 1081 1632 1081C1600 1081 1568 1081 1536 1081C1504 1081 1472 1081 1440 1081C1408 1081 1376 1081 1344 1081C1312 1081 1280 1081 1248 1081C1216 1081 1184 1081 1152 1081C1120 1081 1088 1081 1056 1081C1024 1081 992 1081 960 1081C928 1081 896 1081 864 1081C832 1081 800 1081 768 1081C736 1081 704 1081 672 1081C640 1081 608 1081 576 1081C544 1081 512 1081 480 1081C448 1081 416 1081 384 1081C352 1081 320 1081 288 1081C256 1081 224 1081 192 1081C160 1081 128 1081 96 1081C64 1081 32 1081 16 1081L0 1081Z" fill="#44142f"></path><path d="M0 1007L16 1003.8C32 1000.7 64 994.3 96 987.7C128 981 160 974 192 975.3C224 976.7 256 986.3 288 991.5C320 996.7 352 997.3 384 995C416 992.7 448 987.3 480 989C512 990.7 544 999.3 576 999.2C608 999 640 990 672 991C704 992 736 1003 768 999.3C800 995.7 832 977.3 864 977.2C896 977 928 995 960 996.8C992 998.7 1024 984.3 1056 976.8C1088 969.3 1120 968.7 1152 973.3C1184 978 1216 988 1248 991.7C1280 995.3 1312 992.7 1344 992.7C1376 992.7 1408 995.3 1440 997.2C1472 999 1504 1000 1536 999.2C1568 998.3 1600 995.7 1632 991.2C1664 986.7 1696 980.3 1728 974.3C1760 968.3 1792 962.7 1824 962.8C1856 963 1888 969 1904 972L1920 975L1920 1081L1904 1081C1888 1081 1856 1081 1824 1081C1792 1081 1760 1081 1728 1081C1696 1081 1664 1081 1632 1081C1600 1081 1568 1081 1536 1081C1504 1081 1472 1081 1440 1081C1408 1081 1376 1081 1344 1081C1312 1081 1280 1081 1248 1081C1216 1081 1184 1081 1152 1081C1120 1081 1088 1081 1056 1081C1024 1081 992 1081 960 1081C928 1081 896 1081 864 1081C832 1081 800 1081 768 1081C736 1081 704 1081 672 1081C640 1081 608 1081 576 1081C544 1081 512 1081 480 1081C448 1081 416 1081 384 1081C352 1081 320 1081 288 1081C256 1081 224 1081 192 1081C160 1081 128 1081 96 1081C64 1081 32 1081 16 1081L0 1081Z" fill="#3c142d"></path><path d="M0 981L16 986.2C32 991.3 64 1001.7 96 1010.3C128 1019 160 1026 192 1024C224 1022 256 1011 288 1005.2C320 999.3 352 998.7 384 1000.8C416 1003 448 1008 480 1012.2C512 1016.3 544 1019.7 576 1021.7C608 1023.7 640 1024.3 672 1017.8C704 1011.3 736 997.7 768 998.7C800 999.7 832 1015.3 864 1018.8C896 1022.3 928 1013.7 960 1009.7C992 1005.7 1024 1006.3 1056 1009.2C1088 1012 1120 1017 1152 1013.7C1184 1010.3 1216 998.7 1248 997C1280 995.3 1312 1003.7 1344 1008C1376 1012.3 1408 1012.7 1440 1012.8C1472 1013 1504 1013 1536 1008.5C1568 1004 1600 995 1632 991.3C1664 987.7 1696 989.3 1728 994.7C1760 1000 1792 1009 1824 1015.8C1856 1022.7 1888 1027.3 1904 1029.7L1920 1032L1920 1081L1904 1081C1888 1081 1856 1081 1824 1081C1792 1081 1760 1081 1728 1081C1696 1081 1664 1081 1632 1081C1600 1081 1568 1081 1536 1081C1504 1081 1472 1081 1440 1081C1408 1081 1376 1081 1344 1081C1312 1081 1280 1081 1248 1081C1216 1081 1184 1081 1152 1081C1120 1081 1088 1081 1056 1081C1024 1081 992 1081 960 1081C928 1081 896 1081 864 1081C832 1081 800 1081 768 1081C736 1081 704 1081 672 1081C640 1081 608 1081 576 1081C544 1081 512 1081 480 1081C448 1081 416 1081 384 1081C352 1081 320 1081 288 1081C256 1081 224 1081 192 1081C160 1081 128 1081 96 1081C64 1081 32 1081 16 1081L0 1081Z" fill="#33152a"></path><path d="M0 1032L16 1035.7C32 1039.3 64 1046.7 96 1047.8C128 1049 160 1044 192 1042.2C224 1040.3 256 1041.7 288 1041.3C320 1041 352 1039 384 1039C416 1039 448 1041 480 1041.2C512 1041.3 544 1039.7 576 1041C608 1042.3 640 1046.7 672 1048.2C704 1049.7 736 1048.3 768 1048.8C800 1049.3 832 1051.7 864 1045C896 1038.3 928 1022.7 960 1021.2C992 1019.7 1024 1032.3 1056 1039.7C1088 1047 1120 1049 1152 1046.3C1184 1043.7 1216 1036.3 1248 1033.7C1280 1031 1312 1033 1344 1030.2C1376 1027.3 1408 1019.7 1440 1022C1472 1024.3 1504 1036.7 1536 1041.5C1568 1046.3 1600 1043.7 1632 1038.7C1664 1033.7 1696 1026.3 1728 1026.3C1760 1026.3 1792 1033.7 1824 1037.5C1856 1041.3 1888 1041.7 1904 1041.8L1920 1042L1920 1081L1904 1081C1888 1081 1856 1081 1824 1081C1792 1081 1760 1081 1728 1081C1696 1081 1664 1081 1632 1081C1600 1081 1568 1081 1536 1081C1504 1081 1472 1081 1440 1081C1408 1081 1376 1081 1344 1081C1312 1081 1280 1081 1248 1081C1216 1081 1184 1081 1152 1081C1120 1081 1088 1081 1056 1081C1024 1081 992 1081 960 1081C928 1081 896 1081 864 1081C832 1081 800 1081 768 1081C736 1081 704 1081 672 1081C640 1081 608 1081 576 1081C544 1081 512 1081 480 1081C448 1081 416 1081 384 1081C352 1081 320 1081 288 1081C256 1081 224 1081 192 1081C160 1081 128 1081 96 1081C64 1081 32 1081 16 1081L0 1081Z" fill="#2b1526"></path><path d="M0 1068L16 1063.5C32 1059 64 1050 96 1045.8C128 1041.7 160 1042.3 192 1045.8C224 1049.3 256 1055.7 288 1056C320 1056.3 352 1050.7 384 1051.7C416 1052.7 448 1060.3 480 1062.8C512 1065.3 544 1062.7 576 1060C608 1057.3 640 1054.7 672 1052.8C704 1051 736 1050 768 1047C800 1044 832 1039 864 1040.3C896 1041.7 928 1049.3 960 1051.8C992 1054.3 1024 1051.7 1056 1051.5C1088 1051.3 1120 1053.7 1152 1052.2C1184 1050.7 1216 1045.3 1248 1045.8C1280 1046.3 1312 1052.7 1344 1056.2C1376 1059.7 1408 1060.3 1440 1060.3C1472 1060.3 1504 1059.7 1536 1058.2C1568 1056.7 1600 1054.3 1632 1051.2C1664 1048 1696 1044 1728 1040.5C1760 1037 1792 1034 1824 1034C1856 1034 1888 1037 1904 1038.5L1920 1040L1920 1081L1904 1081C1888 1081 1856 1081 1824 1081C1792 1081 1760 1081 1728 1081C1696 1081 1664 1081 1632 1081C1600 1081 1568 1081 1536 1081C1504 1081 1472 1081 1440 1081C1408 1081 1376 1081 1344 1081C1312 1081 1280 1081 1248 1081C1216 1081 1184 1081 1152 1081C1120 1081 1088 1081 1056 1081C1024 1081 992 1081 960 1081C928 1081 896 1081 864 1081C832 1081 800 1081 768 1081C736 1081 704 1081 672 1081C640 1081 608 1081 576 1081C544 1081 512 1081 480 1081C448 1081 416 1081 384 1081C352 1081 320 1081 288 1081C256 1081 224 1081 192 1081C160 1081 128 1081 96 1081C64 1081 32 1081 16 1081L0 1081Z" fill="#241422"></path></svg>