<?xml version="1.0" encoding="UTF-8"?>
<!DOCTYPE svg PUBLIC "-//W3C//DTD SVG 1.1//EN" "http://www.w3.org/Graphics/SVG/1.1/DTD/svg11.dtd">
<!-- Creator: CorelDRAW 2017 -->
<svg xmlns="http://www.w3.org/2000/svg" xml:space="preserve" width="8.5in" height="1.5748in" version="1.1" style="shape-rendering:geometricPrecision; text-rendering:geometricPrecision; image-rendering:optimizeQuality; fill-rule:evenodd; clip-rule:evenodd"
viewBox="0 0 8500 1574.8"
 xmlns:xlink="http://www.w3.org/1999/xlink">
 <defs>
  <style type="text/css">
   <![CDATA[
    .fil4 {fill:url(#id0)}
    .fil5 {fill:url(#id1)}
    .fil3 {fill:url(#id2)}
    .fil1 {fill:url(#id3)}
    .fil2 {fill:url(#id4)}
    .fil0 {fill:url(#id5)}
    .fil6 {fill:url(#id6)}
    .fil7 {fill:url(#id7);fill-rule:nonzero}
   ]]>
  </style>
  <linearGradient id="id0" gradientUnits="userSpaceOnUse" x1="1002.07" y1="749.24" x2="1052.22" y2="749.24">
   <stop offset="0" style="stop-opacity:1; stop-color:#73CDDD"/>
   <stop offset="0.239216" style="stop-opacity:1; stop-color:#62B9E7"/>
   <stop offset="0.54902" style="stop-opacity:1; stop-color:#949CCE"/>
   <stop offset="0.839216" style="stop-opacity:1; stop-color:#9163A8"/>
   <stop offset="1" style="stop-opacity:1; stop-color:#8859A2"/>
  </linearGradient>
  <linearGradient id="id1" gradientUnits="userSpaceOnUse" xlink:href="#id0" x1="1073.49" y1="834.92" x2="1099.2" y2="834.92">
  </linearGradient>
  <linearGradient id="id2" gradientUnits="userSpaceOnUse" xlink:href="#id0" x1="944.62" y1="682.85" x2="1002.07" y2="682.85">
  </linearGradient>
  <linearGradient id="id3" gradientUnits="userSpaceOnUse" xlink:href="#id0" x1="891.22" y1="608.1" x2="901.31" y2="608.1">
  </linearGradient>
  <linearGradient id="id4" gradientUnits="userSpaceOnUse" xlink:href="#id0" x1="901.35" y1="616.03" x2="911.7" y2="616.03">
  </linearGradient>
  <linearGradient id="id5" gradientUnits="userSpaceOnUse" x1="82.85" y1="1033.55" x2="925.24" y2="578.06">
   <stop offset="0" style="stop-opacity:1; stop-color:#DE9B40"/>
   <stop offset="0.239216" style="stop-opacity:1; stop-color:#FAB062"/>
   <stop offset="0.54902" style="stop-opacity:1; stop-color:#F26E67"/>
   <stop offset="0.839216" style="stop-opacity:1; stop-color:#F06896"/>
   <stop offset="1" style="stop-opacity:1; stop-color:#E2539D"/>
  </linearGradient>
  <linearGradient id="id6" gradientUnits="userSpaceOnUse" x1="798.13" y1="262.22" x2="2259.73" y2="1513.61">
   <stop offset="0" style="stop-opacity:1; stop-color:#73CDDD"/>
   <stop offset="0.239216" style="stop-opacity:1; stop-color:#62B9E7"/>
   <stop offset="0.54902" style="stop-opacity:1; stop-color:#949CCE"/>
   <stop offset="0.839216" style="stop-opacity:1; stop-color:#9163A8"/>
   <stop offset="1" style="stop-opacity:1; stop-color:#9163A8"/>
  </linearGradient>
  <linearGradient id="id7" gradientUnits="userSpaceOnUse" x1="2725.73" y1="804.14" x2="8237.32" y2="804.14">
   <stop offset="0" style="stop-opacity:1; stop-color:#41BCFF"/>
   <stop offset="1" style="stop-opacity:1; stop-color:#FC30B5"/>
  </linearGradient>
 </defs>
 <g id="Layer_x0020_1">
  <metadata id="CorelCorpID_0Corel-Layer"/>
  <path class="fil0" d="M544.51 283.52c-32.46,22.74 -55.87,57.78 -70.21,105.01l0 0 -266.31 903.21 232.22 0c23.53,0 45.56,-7.89 63.29,-21.4l0 0c17.73,-13.56 31.08,-32.79 37.26,-55.49l0 0 145.06 -562.27 0.04 -0.25 0 -0.04 0.08 -0.25c3.8,-9.97 124.83,-318.12 471.65,302.35 -9.22,-18.4 -18.69,-37.3 -28.41,-56.74l0 0c-9.76,-19.4 -21.02,-40.89 -33.79,-64.42l0 0c-12.85,-23.49 -27.66,-50.31 -44.56,-80.48l0 0c-16.94,-30.17 -36.67,-65.17 -59.16,-105.05l0 0 -164.42 -289.83c-13.69,-24.99 -30.04,-46.1 -49.11,-63.21l0 0c-6.59,-6.01 -13.56,-11.52 -20.81,-16.52l0 0c-28.2,-19.4 -62.75,-29.12 -103.72,-29.12 -39.97,0 -76.35,11.52 -109.1,34.5l0 0z"/>
  <path class="fil1" d="M901.31 611.85c-3.43,-2.67 -6.76,-5.13 -10.1,-7.51 3.3,2.38 6.67,4.88 10.1,7.51z"/>
  <path class="fil2" d="M911.7 620.2c-3.5,-2.92 -6.97,-5.72 -10.35,-8.35 3.38,2.67 6.84,5.47 10.35,8.35z"/>
  <path class="fil3" d="M1002.07 715.32c-20.28,-25.45 -39.43,-46.98 -57.45,-64.96l0 0c18.02,18.02 37.17,39.51 57.45,64.96z"/>
  <path class="fil4" d="M1051.81 782.57c-17.29,-25 -33.84,-47.34 -49.74,-67.25 15.86,19.91 32.45,42.24 49.74,67.25zm0.41 0.59c-0.13,-0.2 -0.27,-0.39 -0.41,-0.59l0 0c0.14,0.2 0.28,0.39 0.41,0.59z"/>
  <path class="fil5" d="M1099.19 855.05c-8.72,-14.06 -17.27,-27.45 -25.7,-40.26 8.39,12.81 16.98,26.2 25.7,40.26z"/>
  <path class="fil6" d="M1557.87 278.13c-7.26,5.01 -14.23,10.52 -20.82,16.52l0 0c-19.07,17.11 -35.42,38.22 -49.11,63.2l0 0 -329.76 623.27 -11.51 -20.61c-176.1,-315.07 -288.92,-381.2 -352.54,-381.2l0 0c-57.41,0 -86.82,55.44 -94.46,72.43l0 0 -2.59 6.31c-2.3,5.6 -2,11.93 0.8,17.29l0 0 270.73 518.27c13.31,25.54 26.91,45.73 40.72,60.54l0 0c13.85,14.85 27.91,26.33 42.26,34.5l0 0c14.35,8.18 29.71,13.56 46.1,16.1l0 0c16.35,2.55 34.3,3.84 53.78,3.84l0 0c2.04,0 4.13,0 6.13,-0.04l0 0c2,0.04 4.09,0.04 6.13,0.04l0 0c19.48,0 37.43,-1.3 53.78,-3.84l0 0c16.39,-2.54 31.75,-7.93 46.1,-16.1l0 0c14.35,-8.18 28.41,-19.65 42.26,-34.5l0 0c13.81,-14.81 27.41,-35 40.72,-60.54l0 0 282.74 -541.29 0.04 0.25 145.06 562.27c6.17,22.7 19.52,41.93 37.21,55.49l0 0c17.73,13.52 39.8,21.41 63.29,21.41l0 0 232.26 0 -266.3 -903.22c-14.35,-47.22 -37.76,-82.27 -70.22,-105.01l0 0c-32.75,-22.98 -69.13,-34.5 -109.1,-34.5 -40.97,0 -75.52,9.72 -103.72,29.12l0 0z"/>
  <path class="fil7" d="M3025.36 924.14c-4.06,2.63 -9.07,5.25 -15.51,7.4 -6.44,2.15 -13.84,3.34 -21.71,3.34 -8.83,0 -16.94,-1.43 -23.86,-4.3 -6.92,-2.62 -11.93,-7.16 -14.79,-13.36 -29.82,-62.74 -55.58,-120.24 -77.77,-172.48 -22.19,-52.24 -40.08,-95.43 -53.44,-129.54l-3.34 0c-1.67,41.99 -3.58,81.11 -5.48,117.61 -2.15,36.5 -4.3,71.81 -6.44,105.69 -2.15,34.11 -4.3,68.94 -6.2,104.49 -2.15,35.55 -4.53,73.72 -7.16,114.03 -3.34,1.19 -7.63,2.15 -12.88,3.34 -5.48,1.19 -11.21,1.67 -17.41,1.67 -12.41,0 -20.99,-2.63 -26,-8.11 -5.01,-5.25 -7.63,-12.41 -7.63,-21.23 0,-6.92 0.72,-22.43 2.15,-47 1.19,-24.33 2.87,-54.15 5.01,-89.46 1.91,-35.31 4.3,-73 7.16,-113.32 2.62,-40.07 5.72,-79.68 8.83,-118.56 3.1,-38.89 5.96,-74.19 8.83,-105.44 4.53,-4.06 10.97,-7.63 19.32,-10.97 8.35,-3.34 17.89,-5.01 28.63,-5.01 12.88,0 23.86,2.39 32.92,7.4 8.83,5.01 15.98,12.88 20.99,23.62 14.56,28.63 29.11,59.64 43.66,93.28 14.55,33.64 28.87,67.51 42.94,101.15 14.07,33.64 27.44,65.37 40.32,95.19l3.34 0c24.81,-59.4 49.38,-116.65 73.95,-171.76 24.33,-55.11 44.85,-101.87 61.55,-140.51 5.01,-2.86 11.69,-5.01 19.56,-6.44 7.87,-1.19 15.03,-1.91 21.71,-1.91 12.89,0 23.14,2.15 30.78,6.2 7.63,4.06 12.65,10.97 14.79,20.52 2.15,9.54 4.77,25.76 7.63,48.91 2.62,23.14 5.49,50.1 8.35,81.11 2.62,31.25 5.25,63.93 7.87,98.05 2.63,34.35 5.01,67.99 7.16,101.15 2.15,33.16 4.3,62.98 6.44,89.46 1.91,26.72 3.1,47.95 3.82,63.7 -5.01,3.34 -10.5,5.96 -15.98,7.63 -5.72,1.67 -12.17,2.39 -19.56,2.39 -8.35,0 -15.74,-2.15 -22.19,-6.44 -6.44,-4.06 -10.26,-11.69 -11.45,-22.9 -3.34,-54.63 -6.44,-108.31 -9.54,-161.27 -3.1,-52.96 -5.96,-101.63 -8.11,-146 -2.15,-44.37 -4.06,-80.63 -5.72,-108.54l-3.58 0c-12.17,30.77 -29.1,70.61 -50.33,119.04 -21.23,48.43 -48.43,111.17 -81.59,188.22zm365.24 -165.8l68.94 0 0 292 -31.96 6.68c-10.74,0 -19.56,-3.58 -26.48,-10.5 -6.92,-6.92 -10.5,-15.74 -10.5,-26.48l0 -261.7zm36.98 298.68l0 -58.92 273.63 0c2.63,2.15 5.01,5.96 6.68,10.97 1.67,5.01 2.63,10.74 2.63,16.7 0,9.54 -2.63,17.18 -7.63,22.67 -5.01,5.72 -11.93,8.59 -20.28,8.59l-255.02 0zm31.96 -248.34l-68.94 0 0 -261.7c2.86,-1.19 7.15,-2.39 13.12,-3.82 5.96,-1.43 12.17,-2.15 18.85,-2.15 12.41,0 21.71,2.39 27.91,7.16 5.96,4.77 9.06,12.88 9.06,24.09l0 236.41zm352.59 -59.64l68.23 0 0 301.3c-2.15,0.48 -6.44,1.67 -12.65,3.58 -6.2,2.15 -12.41,3.1 -18.61,3.1 -11.21,0 -20.04,-3.58 -26.72,-10.5 -6.92,-6.92 -10.26,-15.74 -10.26,-26.48l0 -271zm68.23 99.24l-68.23 -0.71 0 -265.28c0,-11.21 3.34,-20.04 10.26,-26.96 6.68,-6.68 15.51,-10.02 26.72,-10.02 6.2,0 12.41,0.72 18.61,2.39 6.2,1.67 10.5,3.1 12.65,4.3l0 296.29zm-31.25 -25.29l0 -57.25 253.35 0c1.67,2.15 3.58,5.96 5.25,10.97 1.67,5.01 2.39,10.5 2.39,15.98 0,9.06 -2.15,16.46 -6.68,21.94 -4.53,5.49 -11.21,8.35 -19.56,8.35l-234.74 0zm0 234.03l0 -57.25 283.65 0c1.67,2.15 3.57,5.72 5.25,10.5 1.67,4.77 2.39,10.26 2.39,16.46 0,8.83 -2.15,16.22 -6.68,21.71 -4.53,5.72 -11.21,8.59 -19.56,8.59l-265.04 0zm0 -453.5l0 -58.21 279.35 0c1.67,2.15 3.58,5.96 5.25,10.98 1.67,5.01 2.39,10.5 2.39,15.98 0,8.83 -2.15,16.22 -6.68,22.19 -4.53,5.96 -10.97,9.06 -19.32,9.06l-260.98 0zm701.13 320.63c-4.06,2.63 -9.07,5.25 -15.51,7.4 -6.44,2.15 -13.83,3.34 -21.71,3.34 -8.83,0 -16.94,-1.43 -23.85,-4.3 -6.92,-2.62 -11.93,-7.16 -14.79,-13.36 -29.82,-62.74 -55.59,-120.24 -77.77,-172.48 -22.19,-52.24 -40.08,-95.43 -53.44,-129.54l-3.34 0c-1.67,41.99 -3.58,81.11 -5.49,117.61 -2.15,36.5 -4.3,71.81 -6.44,105.69 -2.15,34.11 -4.3,68.94 -6.2,104.49 -2.15,35.55 -4.53,73.72 -7.15,114.03 -3.34,1.19 -7.64,2.15 -12.89,3.34 -5.48,1.19 -11.21,1.67 -17.41,1.67 -12.41,0 -20.99,-2.63 -26,-8.11 -5.01,-5.25 -7.63,-12.41 -7.63,-21.23 0,-6.92 0.72,-22.43 2.15,-47 1.19,-24.33 2.87,-54.15 5.01,-89.46 1.91,-35.31 4.3,-73 7.16,-113.32 2.62,-40.07 5.72,-79.68 8.83,-118.56 3.1,-38.89 5.96,-74.19 8.83,-105.44 4.53,-4.06 10.97,-7.63 19.32,-10.97 8.35,-3.34 17.89,-5.01 28.63,-5.01 12.88,0 23.86,2.39 32.92,7.4 8.83,5.01 15.98,12.88 21,23.62 14.55,28.63 29.1,59.64 43.65,93.28 14.56,33.64 28.87,67.51 42.94,101.15 14.08,33.64 27.44,65.37 40.32,95.19l3.34 0c24.81,-59.4 49.38,-116.65 73.95,-171.76 24.33,-55.11 44.85,-101.87 61.55,-140.51 5.01,-2.86 11.69,-5.01 19.56,-6.44 7.87,-1.19 15.03,-1.91 21.71,-1.91 12.88,0 23.14,2.15 30.77,6.2 7.63,4.06 12.65,10.97 14.79,20.52 2.15,9.54 4.77,25.76 7.63,48.91 2.63,23.14 5.49,50.1 8.35,81.11 2.62,31.25 5.25,63.93 7.87,98.05 2.62,34.35 5.01,67.99 7.15,101.15 2.15,33.16 4.3,62.98 6.44,89.46 1.91,26.72 3.1,47.95 3.82,63.7 -5.01,3.34 -10.5,5.96 -15.98,7.63 -5.72,1.67 -12.17,2.39 -19.56,2.39 -8.35,0 -15.74,-2.15 -22.19,-6.44 -6.44,-4.06 -10.26,-11.69 -11.45,-22.9 -3.34,-54.63 -6.44,-108.31 -9.54,-161.27 -3.1,-52.96 -5.96,-101.63 -8.11,-146 -2.15,-44.37 -4.06,-80.63 -5.73,-108.54l-3.58 0c-12.17,30.77 -29.1,70.61 -50.33,119.04 -21.23,48.43 -48.43,111.17 -81.59,188.22zm750.75 126.2c-2.62,2.15 -7.87,4.53 -15.74,7.15 -7.87,2.63 -16.7,3.82 -26.24,3.82 -10.74,0 -20.28,-1.67 -28.63,-4.77 -8.35,-3.1 -14.07,-7.63 -16.94,-13.83 -8.83,-17.42 -19.32,-40.56 -31.49,-69.9 -12.17,-29.1 -25.05,-61.78 -38.65,-98.05 -13.83,-36.02 -27.43,-73.24 -40.79,-111.17 -13.6,-37.93 -26,-74.67 -37.46,-110.21 -11.69,-35.55 -21.71,-67.04 -30.06,-94.47 3.58,-4.53 8.59,-8.83 15.27,-12.88 6.68,-3.81 14.31,-5.72 22.67,-5.72 10.74,0 18.61,2.39 23.62,7.39 5.01,5.01 9.3,12.65 12.64,22.9 24.57,73 48.67,143.85 72.05,212.8 23.14,68.94 48.67,138.6 76.1,208.74l3.34 0c16.22,-42.7 33.16,-88.74 50.81,-138.37 17.65,-49.62 34.83,-100.91 51.53,-153.63 16.46,-52.72 31.25,-104.01 44.13,-153.87 3.81,-2.15 8.11,-3.82 12.88,-4.77 4.77,-0.72 10.02,-1.19 15.74,-1.19 10.02,0 18.13,2.39 24.33,7.39 6.2,5.01 9.3,12.65 9.3,22.9 0,8.35 -3.1,24.09 -9.3,47 -6.2,23.14 -14.56,50.34 -24.81,81.59 -10.26,31.49 -21.71,64.65 -34.11,99.48 -12.41,34.83 -25.05,68.94 -37.93,102.1 -12.88,33.4 -24.57,63.22 -35.31,89.22 -10.73,26.24 -19.56,46.28 -26.96,60.36zm261.02 -144.81l-3.34 -52.96 254.07 -34.59c-2.15,-30.78 -12.88,-56.3 -31.96,-76.1 -19.09,-19.8 -45.33,-29.82 -78.96,-29.82 -34.83,0 -63.7,12.41 -86.36,37.45 -22.67,25.05 -34.11,60.59 -34.11,107.11l0 18.61c4.06,44.85 18.85,78.96 44.37,102.11 25.53,23.38 60.36,35.07 104.49,35.07 23.61,0 45.09,-4.06 64.17,-11.93 19.09,-7.87 34.11,-16.22 45.33,-25.05 6.2,3.81 11.21,8.35 14.79,13.84 3.58,5.48 5.49,11.45 5.49,18.13 0,10.73 -5.96,20.52 -18.13,29.82 -12.17,9.3 -28.15,16.7 -47.95,22.43 -19.8,5.48 -42.22,8.35 -67.04,8.35 -43.18,0 -80.39,-7.87 -112.12,-23.62 -31.73,-15.74 -56.3,-39.13 -73.24,-70.38 -17.17,-31.01 -25.76,-68.94 -25.76,-114.03 0,-31.96 4.54,-60.35 13.84,-85.4 9.3,-25.05 22.19,-46.04 38.65,-63.46 16.46,-17.42 36.26,-30.78 59.4,-40.08 23.14,-9.31 47.95,-13.84 74.91,-13.84 34.11,0 64.41,7.4 90.41,21.95 26,14.55 46.52,35.07 61.55,61.07 14.79,26 22.19,55.82 22.19,89.46 0,12.41 -2.86,21.23 -8.35,26.48 -5.49,5.49 -13.36,8.59 -23.62,9.78l-282.7 39.6zm749.08 -105.2l0 85.88 -67.51 0 0 -82.54c0,-31.25 -8.83,-54.39 -26.48,-68.94 -17.65,-14.55 -41.27,-21.94 -71.09,-21.94 -22.43,0 -42.23,2.86 -59.64,8.35 -17.41,5.73 -32.44,12.17 -44.61,19.56l0 145.52 -67.28 0 0 -142.18c0,-11.69 2.39,-21.47 7.16,-29.11 4.77,-7.63 13.12,-15.03 24.81,-22.43 14.55,-8.35 33.87,-16.22 57.97,-23.85 24.09,-7.63 51.29,-11.45 81.59,-11.45 51.05,0 91.37,11.69 120.95,34.83 29.34,23.38 44.13,59.4 44.13,108.31zm-336.61 39.6l67.28 0 0 215.42c-2.86,1.19 -7.16,2.39 -12.65,3.82 -5.48,1.43 -11.69,2.15 -18.61,2.15 -11.69,0 -20.76,-2.39 -26.72,-7.16 -6.2,-4.77 -9.3,-12.41 -9.3,-23.14l0 -191.09zm269.1 0l67.51 0 0 215.42c-2.86,1.19 -7.16,2.39 -13.12,3.82 -5.96,1.43 -11.93,2.15 -18.13,2.15 -12.17,0 -21.23,-2.39 -27.2,-7.16 -5.96,-4.77 -9.06,-12.41 -9.06,-23.14l0 -191.09zm194.43 -5.01l67.28 0 0 115.94c0,22.66 6.44,38.41 19.56,47.71 12.89,9.3 30.54,13.83 52.96,13.83 9.54,0 20.28,-1.67 31.97,-5.01 11.69,-3.34 21.47,-7.4 29.34,-11.93 3.34,3.58 6.44,7.63 9.3,12.64 2.86,5.01 4.3,10.98 4.3,17.65 0,12.41 -7.39,22.43 -21.95,30.3 -14.55,7.87 -34.83,11.93 -60.59,11.93 -39.36,0 -71.09,-8.83 -95.42,-26.24 -24.57,-17.41 -36.74,-46.28 -36.74,-86.6l0 -120.23zm34.59 -102.82l0 -55.59 170.81 0c1.67,2.39 3.34,5.96 5.01,10.98 1.67,5.01 2.63,10.5 2.63,15.98 0,9.07 -2.15,15.98 -6.68,21 -4.53,5.01 -10.74,7.63 -18.61,7.63l-153.16 0zm32.69 127.87l-67.28 0 0 -304.64c2.86,-1.19 7.16,-2.39 13.12,-3.81 5.96,-1.19 12.17,-1.91 18.85,-1.91 11.69,0 20.52,2.39 26.48,7.16 5.96,4.77 8.83,12.41 8.83,23.14l0 280.07zm245 54.87l0 -76.58 67.28 0 0 73.24c0,35.78 9.54,61.55 28.63,77.29 19.08,15.75 45.33,23.62 78.96,23.62 22.43,0 41.51,-2.39 57.25,-7.16 15.75,-4.77 28.15,-9.78 36.98,-14.79l0 -152.2 67.51 0 0 149.82c0,11.69 -1.43,21.23 -4.54,28.15 -3.1,6.92 -10.73,13.83 -22.42,20.52 -12.41,7.39 -30.06,14.31 -52.96,21.23 -23.14,6.68 -50.57,10.02 -82.54,10.02 -36.98,0 -68.7,-5.49 -94.71,-16.46 -26,-10.98 -45.8,-27.91 -59.16,-50.57 -13.6,-22.67 -20.28,-51.29 -20.28,-86.12zm336.61 -32.92l-67.51 0 0 -212.08c2.86,-1.19 7.15,-2.39 13.12,-3.82 5.96,-1.19 11.93,-1.91 18.13,-1.91 12.41,0 21.47,2.39 27.44,6.92 5.96,4.77 8.83,12.88 8.83,24.09l0 186.79zm-269.33 0l-67.28 0 0 -212.08c2.63,-1.19 6.92,-2.39 12.88,-3.82 5.96,-1.19 12.17,-1.91 19.09,-1.91 11.69,0 20.52,2.39 26.48,6.92 5.96,4.77 8.83,12.88 8.83,24.09l0 186.79zm462.81 -141.23l0 132.88 -67.28 0 0 -127.87c0,-12.89 2.39,-23.14 7.16,-30.78 4.77,-7.63 12.64,-15.03 23.85,-22.43 14.56,-9.54 34.59,-17.89 59.88,-24.81 25.05,-6.92 53.2,-10.5 83.98,-10.5 45.09,0 67.51,11.21 67.51,33.64 0,5.72 -0.95,10.97 -2.63,15.74 -1.67,4.77 -4.06,8.83 -6.68,12.17 -5.49,-1.19 -12.88,-2.15 -21.71,-3.34 -9.07,-1.19 -18.13,-1.67 -27.2,-1.67 -25.76,0 -48.43,2.63 -67.99,7.87 -19.8,5.48 -36.02,11.69 -48.9,19.08zm-67.28 94.23l67.28 10.02 0 210.41c-2.86,1.19 -7.16,2.39 -12.65,3.82 -5.49,1.43 -11.69,2.15 -18.61,2.15 -11.69,0 -20.76,-2.39 -26.72,-7.16 -6.2,-4.77 -9.3,-12.41 -9.3,-23.14l0 -196.1zm337.41 70.61l-3.34 -52.96 254.07 -34.59c-2.15,-30.78 -12.88,-56.3 -31.97,-76.1 -19.09,-19.8 -45.33,-29.82 -78.96,-29.82 -34.83,0 -63.69,12.41 -86.36,37.45 -22.66,25.05 -34.11,60.59 -34.11,107.11l0 18.61c4.06,44.85 18.85,78.96 44.37,102.11 25.52,23.38 60.35,35.07 104.49,35.07 23.62,0 45.09,-4.06 64.17,-11.93 19.08,-7.87 34.11,-16.22 45.33,-25.05 6.2,3.81 11.21,8.35 14.79,13.84 3.58,5.48 5.48,11.45 5.48,18.13 0,10.73 -5.96,20.52 -18.13,29.82 -12.17,9.3 -28.15,16.7 -47.95,22.43 -19.8,5.48 -42.23,8.35 -67.04,8.35 -43.18,0 -80.4,-7.87 -112.13,-23.62 -31.73,-15.74 -56.3,-39.13 -73.24,-70.38 -17.18,-31.01 -25.76,-68.94 -25.76,-114.03 0,-31.96 4.53,-60.35 13.83,-85.4 9.3,-25.05 22.19,-46.04 38.65,-63.46 16.46,-17.42 36.26,-30.78 59.4,-40.08 23.14,-9.31 47.95,-13.84 74.91,-13.84 34.11,0 64.41,7.4 90.41,21.95 26,14.55 46.52,35.07 61.55,61.07 14.79,26 22.19,55.82 22.19,89.46 0,12.41 -2.86,21.23 -8.35,26.48 -5.49,5.49 -13.36,8.59 -23.62,9.78l-282.69 39.6zm686.81 47.95c0,36.02 -13.12,63.94 -39.6,84.21 -26.48,20.28 -64.65,30.3 -114.51,30.3 -42.7,0 -77.29,-6.68 -104.25,-19.8 -26.96,-13.12 -40.56,-27.67 -40.56,-43.42 0,-6.68 1.91,-13.36 5.49,-19.8 3.58,-6.44 9.07,-11.45 16.46,-15.51 15.03,10.74 32.68,20.52 52.96,29.34 20.28,9.07 43.18,13.6 69.19,13.6 58.21,0 87.31,-19.56 87.31,-58.93 0,-16.22 -4.77,-29.58 -14.55,-40.07 -9.78,-10.26 -24.33,-17.66 -43.42,-22.19l-69.9 -18.61c-34.11,-8.35 -59.16,-21.47 -74.91,-39.13 -15.74,-17.65 -23.62,-39.6 -23.62,-66.08 0,-29.82 12.17,-55.59 36.26,-77.53 24.09,-21.71 60.83,-32.69 110.22,-32.69 26.48,0 49.38,2.63 69.18,7.87 19.56,5.48 34.83,12.41 45.8,21.23 10.98,8.83 16.46,18.13 16.46,28.15 0,7.39 -1.91,13.83 -5.48,19.32 -3.58,5.72 -8.59,10.02 -14.79,12.64 -6.68,-4.53 -15.27,-9.3 -25.53,-14.79 -10.5,-5.25 -22.66,-9.78 -36.74,-13.36 -14.07,-3.58 -29.34,-5.48 -46.28,-5.48 -24.57,0 -44.61,4.77 -59.64,14.31 -15.27,9.54 -22.9,22.9 -22.9,40.32 0,12.41 4.29,23.14 13.12,32.44 8.83,9.3 22.67,16.22 41.51,20.75l58.21 14.31c38.17,8.83 66.8,23.14 85.88,42.46 19.08,19.32 28.63,44.85 28.63,76.1z"/>
 </g>
</svg>
