<svg id="Layer_1" data-name="Layer 1" xmlns="http://www.w3.org/2000/svg" xmlns:xlink="http://www.w3.org/1999/xlink" viewBox="0 0 705.95 578.28" width="406" height="306" class="illustration styles_illustrationTablet__1DWOa"><defs><linearGradient id="linear-gradient" x1="512.77" y1="389.89" x2="487.5" y2="699.94" gradientUnits="userSpaceOnUse"><stop offset="0.01"></stop><stop offset="0.08" stop-opacity="0.69"></stop><stop offset="0.21" stop-opacity="0.32"></stop><stop offset="1" stop-opacity="0"></stop></linearGradient><linearGradient id="linear-gradient-2" x1="188.45" y1="429.28" x2="155.57" y2="709.52" xlink:href="#linear-gradient"></linearGradient><linearGradient id="linear-gradient-3" x1="141.62" y1="417.26" x2="342.16" y2="536.49" xlink:href="#linear-gradient"></linearGradient><linearGradient id="linear-gradient-4" x1="219.67" y1="406.85" x2="112.53" y2="498.68" xlink:href="#linear-gradient"></linearGradient><linearGradient id="linear-gradient-5" x1="266.57" y1="368" x2="239.82" y2="285.32" xlink:href="#linear-gradient"></linearGradient><linearGradient id="linear-gradient-6" x1="205.55" y1="363.33" x2="165.88" y2="447.96" xlink:href="#linear-gradient"></linearGradient><linearGradient id="linear-gradient-7" x1="279.78" y1="499.7" x2="99.77" y2="311.47" xlink:href="#linear-gradient"></linearGradient><linearGradient id="linear-gradient-8" x1="110.97" y1="522.93" x2="110.59" y2="603.13" xlink:href="#linear-gradient"></linearGradient><linearGradient id="linear-gradient-9" x1="113.01" y1="574.75" x2="111.83" y2="512.88" xlink:href="#linear-gradient"></linearGradient><linearGradient id="linear-gradient-10" x1="484.25" y1="339.91" x2="531.74" y2="605.54" xlink:href="#linear-gradient"></linearGradient><linearGradient id="linear-gradient-11" x1="488.53" y1="332.32" x2="490.88" y2="483.21" xlink:href="#linear-gradient"></linearGradient><linearGradient id="linear-gradient-12" x1="181.7" y1="452.49" x2="255.58" y2="469.1" xlink:href="#linear-gradient"></linearGradient><linearGradient id="linear-gradient-13" x1="248.35" y1="320.59" x2="102.54" y2="398.38" xlink:href="#linear-gradient"></linearGradient><linearGradient id="linear-gradient-14" x1="105.02" y1="523.85" x2="106.34" y2="558.74" xlink:href="#linear-gradient"></linearGradient></defs><title>3. Motivation</title><path d="M18,433.51c3.85,23.67,27.35,133.77,113.19,157.19,65,17.71,247.33-43.06,351.31-12.49,209.14,61.48,247.45-103.58,235.76-148.16-8.14-31.08-18.19-62.25-18.46-94.7-.27-34,11.62-67.33,12.92-101.52C716,147.31,655.21,62.37,572.26,37.56c-35.5-10.62-64.52-21.45-101.58-21.77-75.2-.64-253.65,0-341.55,127.87-15.71,22.86-38.52,39.94-56,61.44-23.47,28.79-38.94,63.52-48.35,99.46C13.77,346.45,11.07,390.86,18,433.51Z" transform="translate(-14.19 -15.72)" fill="#f6296b" opacity="0.18" style="isolation: isolate;"></path><path d="M393.5,527a67.49,67.49,0,0,0,14.74,5.38,330.83,330.83,0,0,0,33.83,7.2c10.47,1.67,21.27,3.74,31.81,3.64l73.1-.72,26.32-.26c8.47-.08,17.06-.18,25.22-2.48s16-7.1,20-14.53a9.89,9.89,0,0,0,1.49-5.66c-.47-4.3-5.06-6.75-9.13-8.19-18.67-6.58-38.65-7.66-58.26-8.29-9.77-.32-19.55.67-29.35.7-10.62,0-21.24-.22-31.86.2-18.63.75-37.12,3.62-55.72,4.8-15.67,1-31.6.84-46.73,5-1.88.52-4,1.38-4.51,3.26-.45,1.71.71,3.4,1.93,4.67A29,29,0,0,0,393.5,527Z" transform="translate(-14.19 -15.72)" fill="url(#linear-gradient)"></path><path d="M464.17,76.57s34,15.24,48.09,48.67,14.43,39.87,14.43,39.87,27.78-48.67,70.59-40.46,49.25,32.25,49.25,32.25-75.68,27-96.77,27H528.67V397.58H512.06L518.3,182.7s-34.21-.59-68.5-46.91S407.3,82.43,388,83C388,83,429,64.84,464.17,76.57Z" transform="translate(-14.19 -15.72)" fill="#f6296b" opacity="0.5" style="isolation: isolate;"></path><path d="M139.74,535c-2.29.3-4.63.34-6.91.79-7.52,1.48-14.56,4.7-21.91,6.8-10.26,2.93-21,3.62-31.56,5.22-2.43.37-5.46,1.45-5.51,3.91a4.69,4.69,0,0,0,2,3.4c3.4,2.92,7.81,4.36,12.13,5.57a193.36,193.36,0,0,0,51.79,7.19c12.72,0,26.29-1.54,36.09-9.65,3.71-3.07,6.88-7.49,6.44-12.29.07.79,55-3.09,59.78-3.86,11.73-1.91,23.33-5.47,33.36-11.84a3.17,3.17,0,0,0,1.63-1.81c.24-1.13-.77-2.14-1.78-2.72-2.66-1.54-5.83-1.86-8.89-2.09a258,258,0,0,0-40.48.12c-5,.41-10.09,1-15.13,1.51q-18.17,1.95-36.35,3.51c-5.88.51-12.43.23-18.19,1.48-4.42,1-8.92,2.72-13.29,4.09A19.47,19.47,0,0,1,139.74,535Z" transform="translate(-14.19 -15.72)" fill="url(#linear-gradient-2)"></path><polygon points="223.16 388.63 220.72 508.64 204.44 508.64 199.75 413.26 189.52 508.64 170.87 511.76 166.6 384.69 223.16 388.63" fill="#f6296b"></polygon><polygon points="223.16 388.63 220.72 508.64 204.44 508.64 199.75 413.26 189.52 508.64 170.87 511.76 166.6 384.69 223.16 388.63" fill="url(#linear-gradient-3)"></polygon><polygon points="182.02 506.77 182.02 395.53 166.6 384.69 171.8 508.64 182.02 506.77" fill="url(#linear-gradient-4)"></polygon><path d="M281.61,325.78s-.12.11-.35.29c0,0,0,0,0,.05-3.48,3-30.8,26.53-34.9,25.15-3.52-1.16-12.79-6.68-16.29-8.83l-1.37-.83V308.54L245.75,329l30.3-17.87Z" transform="translate(-14.19 -15.72)" fill="#f6296b"></path><path d="M281.26,326.07s0,0,0,.05c-3.48,3-30.8,26.53-34.9,25.15-3.52-1.16-12.79-6.68-16.29-8.83a23.63,23.63,0,0,1-.17-4c.05-2.93-1-10,3.48-8.31,3.65,1.42,6.29,6.13,9.87,7.92a8,8,0,0,0,4.13,1.93c2.5.15,4.49-1.87,6.22-3.64a75,75,0,0,1,21.12-15.2,2.3,2.3,0,0,1,1.15-.3,2.12,2.12,0,0,1,1.12.75C278.41,323.05,279.84,324.57,281.26,326.07Z" transform="translate(-14.19 -15.72)" fill="url(#linear-gradient-5)"></path><path d="M192.85,298.19a143.63,143.63,0,0,0-12.68,7.16c-8.71,5.58-7.14,8.16-5.54,17.78a378.14,378.14,0,0,1,5.1,62.22c0,4.91-.33,10.3,1.06,15.06.9,3.11,3,5.7,3.22,9,13.43,1.85,44.14,8.76,53.34-5,8.79-13.2-7-60.11-4.11-80.92s-24-23.18-24-23.18Z" transform="translate(-14.19 -15.72)" fill="#f6296b"></path><path d="M211.34,394.38,187,410.8l-4-5.08s-3.84-12.91-3.25-26-.06-8.41-.06-8.41L213.94,393Z" transform="translate(-14.19 -15.72)" fill="url(#linear-gradient-6)"></path><path d="M223.44,277.89a24.82,24.82,0,0,1-.23,4.14,25.52,25.52,0,0,1-3.34,8.09,6.28,6.28,0,0,1-1.73,2.24c-1.41,1-3.32.68-5,.41a2.43,2.43,0,0,0-1.2,0c-1,.36-1.08,1.66-1,2.69l.25,4.77a3,3,0,0,1-.32,1.91,2.51,2.51,0,0,1-1.26.82,10.22,10.22,0,0,1-10.27-2.33,6.86,6.86,0,0,1-1.61-2.17,8.82,8.82,0,0,1-.6-2.48c-.57-4.56-.1-9.18-.42-13.77-.26-3.81-1.07-7.66-.34-11.4a12.65,12.65,0,0,1,7.36-9.31c3.8-1.54,8.13-.85,12.07.27a57.81,57.81,0,0,1,5.61,1.9,3.76,3.76,0,0,1,2.18,1.59c.72,1.46-.06,3.59-.09,5.16C223.4,272.92,223.45,275.41,223.44,277.89Z" transform="translate(-14.19 -15.72)" fill="#ffbaa8"></path><path d="M223.47,259.11c.41.93,1,1.74,1.5,2.64a4,4,0,0,1,.51,2.92,4.15,4.15,0,0,1-1.45,1.94c-3.15,2.59-7.51,3.12-11.58,2.91a18.39,18.39,0,0,0-3.48,0A4.84,4.84,0,0,0,205.9,271c-1.2,1.39-1.13,3.42-1.51,5.22a.47.47,0,0,1-.14.3.41.41,0,0,1-.22.07c-1.29.17-2.5-1.36-3.7-.85a2,2,0,0,0-1,1.64,4.58,4.58,0,0,0,.35,2.34,2.41,2.41,0,0,1,.29.92,2.06,2.06,0,0,1-.15.64l-.83,2.26a3.48,3.48,0,0,1-1.43,2.08c-1,.49-2.16-.05-3.11-.61a3.72,3.72,0,0,1-2.27-3c-1.28-5.63-1.38-11.45-1.37-17.22a9.8,9.8,0,0,1,.56-4c1.1-2.55,4.05-3.69,6.76-4.28,5-1.07,10.14-1.09,15.24-1.11a21.81,21.81,0,0,1,4.78.34,7.26,7.26,0,0,1,4.1,2.31" transform="translate(-14.19 -15.72)" fill="#973535"></path><path d="M215.53,283.22a3.57,3.57,0,0,0-1.8,2,.32.32,0,0,0,0,.27.35.35,0,0,0,.26.1,35.53,35.53,0,0,0,5.26-.06,9.93,9.93,0,0,0,4-1,.57.57,0,0,0,.24-.19.63.63,0,0,0,.06-.27,2.63,2.63,0,0,0-2.84-2.47A11.45,11.45,0,0,0,215.53,283.22Z" transform="translate(-14.19 -15.72)" fill="#973535"></path><path d="M197.09,296s-3.72,2.61-3.62,5.44,20.28,59.71,20.28,59.71.46-54.43,0-57a41,41,0,0,0-2.73-7.13S203,302.87,197.09,296Z" transform="translate(-14.19 -15.72)" fill="#fff"></path><polygon points="189.52 285.43 188.17 289.83 190.44 291.73 191.53 322.61 199.56 345.43 199.75 322.22 192.86 291.58 195.38 287.26 192.06 285.43 189.52 285.43" fill="#212642"></polygon><path d="M276.17,321.78a11.13,11.13,0,0,1,1.77-9.25l4.16-5.77c.71-1,1.46-2,2.14-3,.46-.68.67-1.36,1.46-1.77a4.52,4.52,0,0,1,1.63-.38l2.87-.3a1.88,1.88,0,0,1,.71,0,1.27,1.27,0,0,1,.78,1.26,3.81,3.81,0,0,1-.49,1.48,14.3,14.3,0,0,1,5.14-2,1.58,1.58,0,0,1,.78,0,1.39,1.39,0,0,1,.64.63,11.73,11.73,0,0,1,1.3,4.6c.24,1.75.49,3.49.68,5.25a4.37,4.37,0,0,1,0,1.35,3.64,3.64,0,0,1-.64,1.31,9.06,9.06,0,0,1-4.65,3.37,25.93,25.93,0,0,1-3.51.69,26.6,26.6,0,0,0-9.26,3.52,10,10,0,0,1-2.22,1.15,2.61,2.61,0,0,1-2.38-.36A3.21,3.21,0,0,1,276.17,321.78Z" transform="translate(-14.19 -15.72)" fill="#ffbaa8"></path><path d="M218.64,381.45a53.29,53.29,0,0,1-8.06,8.18c-.61.5-1.23,1-1.86,1.46a4.49,4.49,0,0,1-2.37,1.11,4.68,4.68,0,0,1-1.75-.42c-11.74-4.58-23.28-9.75-34.51-15.47-4.7-2.42-9.87-5.59-10.87-10.77a17.14,17.14,0,0,1,.13-5.44,156.71,156.71,0,0,1,10.22-38.25c1.42-3.48,3.19-10.17,6.9-12.42l0,0,.43-.23.53-.25c5-1.81,9.35,3.19,10.72,7.42,1.94,6,1,12.54-.56,18.64s-3.75,12.08-4.29,18.37a5,5,0,0,0,.25,2.56,5.57,5.57,0,0,0,1.93,1.93Q202.08,369.67,218.64,381.45Z" transform="translate(-14.19 -15.72)" fill="#f6296b"></path><path d="M317.77,284.88l-1.09-2c-.64.36-16,8.66-27.55,18.87-17.89,15.87-32.05,36.11-37,52.83-7.58,25.83-32,36.39-34.43,37.39-4.1.89-45.36,10.93-53.12,51.27L163,451.4c-6.16,32.47-15.49,81.51-27.3,88.89a.07.07,0,0,1-.06,0,3.71,3.71,0,0,1-3.15.58l-.52-.15-.1,0a5.68,5.68,0,0,0,0-5.36,5.82,5.82,0,0,0-2.85-2.6h0a10.81,10.81,0,0,0-4.38-.77l-18.82-.15c-9.17-.08-18.64-.14-28,1.52a6.68,6.68,0,0,0-4.63,3,4.27,4.27,0,0,0-.14,3.69l.58,1.39,1.48.4c2.87.77,5.75,1.44,8.62,2l.42.1a168,168,0,0,0,34.32,3.46q6.38,0,12.89-.44a10.15,10.15,0,0,0,7.6-1.45c13.06-8.17,21.37-47,30.14-93l1.56-8.14c7.31-38.05,46.81-46.07,48.48-46.4l.52-.15c1.19-.44,29.55-11.43,38.4-41.53,4.63-15.68,18.08-34.8,35.14-49.91,11-9.73,26.22-18,26.36-18.06ZM105.83,538.14l18.8.15a8.31,8.31,0,0,1,1.13.06,7.11,7.11,0,0,1-2.48,0l-.07.58-.27,2.23a165.91,165.91,0,0,1-30.78-2.06c-1.31-.21-2.62-.44-3.91-.69C94.1,538,100,538.1,105.83,538.14Z" transform="translate(-14.19 -15.72)" fill="#fff"></path><path d="M317.77,284.88c-4.81,2.73-16.27,9.58-25.33,17.62-17.86,15.85-32.05,36.09-37,52.83-7.6,25.81-32,36.39-34.43,37.37-4.1.89-45.38,10.93-53.12,51.27l-1.56,8.16c-3.34,17.58-6.66,35.2-11.19,52.52A179.7,179.7,0,0,1,148,527.14c-1.83,4.48-4.08,10.22-8.09,13.24-3.1,2.34-8.5,2.92-12.29,3.5a80.72,80.72,0,0,1-14,.85A167.35,167.35,0,0,1,87.5,541.6c-3.32-.6-6.72-1.26-9.63-3a2.07,2.07,0,0,0-1.62-.45c-.9.3,0,2.14.19,2.67l.6,1.39,1.46.38c1.77.46,3.54.92,5.31,1.31l.42.1a168,168,0,0,0,34.32,3.46q6.38,0,12.89-.44a10.15,10.15,0,0,0,7.6-1.45c13.06-8.17,21.37-47,30.14-93l1.56-8.14c7.31-38.05,46.81-46.07,48.48-46.4l.52-.15c1.19-.44,29.55-11.43,38.4-41.53,4.63-15.68,18.08-34.8,35.14-49.91,11-9.73,26.22-18,26.36-18.06ZM126.59,539.12l-.31,2.81a162.83,162.83,0,0,1-34.72-2.75l.6,0c5.67-.35,11.4-.31,17-.27l14.07.1,4.75,0c.48,0,.84,0,1.13.06A7.22,7.22,0,0,1,126.59,539.12Z" transform="translate(-14.19 -15.72)" fill="url(#linear-gradient-7)"></path><path d="M117.71,552.71a170.28,170.28,0,0,1-49-7.2,3.12,3.12,0,1,1,1.81-6,164.18,164.18,0,0,0,56.32,6.68,100.12,100.12,0,0,0,10.53-1.06c.76-.12,1.51-.26,2.26-.41a2.41,2.41,0,0,0,1.85-.92c1.26-1.47,2.46-3,3.61-4.54l.83-1.13c1.12-1.58,2.31-3.28,4.13-3.95s4.56-.13,5.06,2a9.53,9.53,0,0,1,.2,1.19,10.56,10.56,0,0,1-2.42,7.79c-2.86,3.35-7.14,4.65-10.55,5.4a93.57,93.57,0,0,1-15.16,1.89Q122.42,552.7,117.71,552.71Z" transform="translate(-14.19 -15.72)" fill="#fff"></path><path d="M117.71,552.74a170.28,170.28,0,0,1-49-7.2,3.12,3.12,0,1,1,1.81-6,164.18,164.18,0,0,0,56.32,6.68A85.83,85.83,0,0,0,141,544.49c3.2-.7,6.9-1.83,8.28-5.09a2.15,2.15,0,0,0-.1-2.32,4.86,4.86,0,0,0-.81-.52,1,1,0,0,1-.5-.78c0-.35.34-.6.64-.77a5.54,5.54,0,0,1,4-.51c1.69.41,2.64,1.17,2.82,2.9a10.53,10.53,0,0,1-2.42,7.79c-2.86,3.35-7.14,4.65-10.55,5.4a91.39,91.39,0,0,1-15.16,1.89Q122.42,552.73,117.71,552.74Z" transform="translate(-14.19 -15.72)" fill="url(#linear-gradient-8)"></path><path d="M156.39,548.74a3.42,3.42,0,0,1-.1.79,2.91,2.91,0,0,1-1,1.54,16.13,16.13,0,0,1-4.4,2.75,21,21,0,0,1-6.74,1.25c-10.36.73-21.29,1.5-32.37,1.5-14.2,0-28.63-1.27-42.42-5.5a2.31,2.31,0,0,1-.58-.25A3.13,3.13,0,0,1,70.34,545a3,3,0,0,1,1,.15c23.4,7.18,49.37,5.35,72.41,3.73a16.11,16.11,0,0,0,4.85-.82,10,10,0,0,0,2.64-1.68,3.14,3.14,0,0,1,5.19,2.39Z" transform="translate(-14.19 -15.72)" fill="#fff"></path><path d="M156.29,549.53a2.91,2.91,0,0,1-1,1.54,16.13,16.13,0,0,1-4.4,2.75,21,21,0,0,1-6.74,1.25c-10.36.73-21.29,1.5-32.37,1.5-14.2,0-28.63-1.27-42.42-5.5a2.31,2.31,0,0,1-.58-.25l.06-.22a3.07,3.07,0,0,1,2.94-2.11,2.86,2.86,0,0,1,1,.15c23.41,7.18,49.4,5.35,72.44,3.73a16.22,16.22,0,0,0,4.85-.82,10.11,10.11,0,0,0,2.62-1.68A3.2,3.2,0,0,1,156.29,549.53Z" transform="translate(-14.19 -15.72)" fill="url(#linear-gradient-9)"></path><polygon points="552.89 507.13 432.1 504.2 409.82 389.33 576.35 389.33 552.89 507.13" fill="#fff"></polygon><polygon points="552.89 507.13 432.1 504.2 409.82 389.33 576.35 389.33 552.89 507.13" fill="url(#linear-gradient-10)"></polygon><polygon points="552.89 507.13 455.56 504.77 437.58 423.72 569.02 423.72 552.89 507.13" fill="#fff"></polygon><path d="M525.1,261.67a24.69,24.69,0,0,0-6.85,4.63,10,10,0,0,0-3,7.47c.26,3.35,2.67,6.12,5.2,8.33,2.91,2.54,6.43,5.21,6.66,9.06,2.08-1.53,3.95-3.34,6.09-4.8,3.75-2.55,8.15-3.92,12.27-5.81s8.19-4.54,10.15-8.62a24.46,24.46,0,0,0,1.79-8.09,39.07,39.07,0,0,0,.24-9,13.1,13.1,0,0,0-3.73-8,17.92,17.92,0,0,0-5.29-3.07,17.23,17.23,0,0,0-5.83-1.63c-4.28-.19-9,3.39-10.53,7.38-.84,2.25-.44,4.81-1.28,7C530,259.22,527.45,260.49,525.1,261.67Z" transform="translate(-14.19 -15.72)" fill="#ff681c"></path><path d="M432,397.58a7.38,7.38,0,0,0-2.39.37,2.13,2.13,0,0,0-1.43,1.79,2.38,2.38,0,0,0,1.24,1.91c.66.43,1.43.69,2.09,1.12a12.15,12.15,0,0,0,1.8,1.26,5.52,5.52,0,0,0,3.47-.13,45.36,45.36,0,0,1,15.83-1,5.77,5.77,0,0,0,1.55,0c1.55-.24,2.59-1.72,3.17-3.17,1.24-3.14,1.18-6.63.91-10a2.18,2.18,0,0,0-.27-1.07,1.91,1.91,0,0,0-.78-.62c-5-2.48-7.76,2.48-11.45,4.9A28.22,28.22,0,0,1,432,397.58Z" transform="translate(-14.19 -15.72)" fill="#ffbaa8"></path><path d="M553.23,323.82s1.26,18.77-15.51,24.43-46.82,1-46.82,1-12.11,23.18-24.46,34.21l-7.93,7.83s-5.17,1.62-8.71-3.78c0,0,23.47-46.58,26.52-50.06a28,28,0,0,1,13.7-9c6.9-2.16,33.46-10.53,33.46-10.53Z" transform="translate(-14.19 -15.72)" fill="#473f47"></path><polygon points="427.1 246.6 445.07 284.73 478.25 284.5 477.98 281.63 447.46 281.29 430.56 245.21 427.1 246.6" fill="#473f47"></polygon><path d="M529.14,237.68c-.63,1-1.9,1.66-2.31,2.8-.49,1.39.47,2.81,1,4.2.69,1.92.47,4.08,1.14,6a2.3,2.3,0,0,0,.68,1.09,2.55,2.55,0,0,0,1,.4,14.85,14.85,0,0,0,4.36.26,1.22,1.22,0,0,1,.85.11,1.11,1.11,0,0,1,.38.74,23.33,23.33,0,0,1-.17,11.11c-.31,1.19-.66,2.65.23,3.52a2.33,2.33,0,0,0,1.12.56c2.77.68,5.44-1.37,7.3-3.52a32.51,32.51,0,0,0,4.29-6.29,6.21,6.21,0,0,0,.73-2,7.17,7.17,0,0,0-.38-2.74,45.82,45.82,0,0,1-1.43-9.23c-.21-4,.08-8.16-1.45-11.86a6.21,6.21,0,0,0-2.42-3.11,7.78,7.78,0,0,0-4.31-.69c-2.9.11-6.09.5-8.07,2.64C531.1,232.28,529.91,236.39,529.14,237.68Z" transform="translate(-14.19 -15.72)" fill="#ffbaa8"></path><path d="M549.49,256.9s-12,6.19-15.55,11-9.53,8.44-7.25,17.63-.51,23.21-.51,23.21,5.19,16.34,17.93,20.48,9.27,2.81,9.27,2.81,6.79-30.28,9.43-38.72S561.15,255.55,549.49,256.9Z" transform="translate(-14.19 -15.72)" fill="#f6296b"></path><path d="M533,231.25a8.17,8.17,0,0,0,2.64,5.12c1.41,1.33,3.17,2.23,4.63,3.5s2.65,3.14,2.32,5a2.59,2.59,0,0,1,3.17,1,2.09,2.09,0,0,1-.34,2.19,2.65,2.65,0,0,1-2.09.87,8.27,8.27,0,0,1,3.73,3c1,1.51,1.52,3.32,2.45,4.89,1,1.75,2.73,2.8,4.28,4a5.67,5.67,0,0,1,1.85,2,30.39,30.39,0,0,0,1.25,3.54c.9,1.6,2.35,2.82,3.42,4.31,1.4,2,2.84,5.72,2.71,8.12a13.85,13.85,0,0,1,0-2.58c.3-.52.59-1,.86-1.57a14,14,0,0,0,1.07-2.94c.57-2.35.18-4.67.19-7,0-5,4.75-14.52.94-18.83-1.32-1.48-3.31-2.16-4.83-3.43-3.37-2.78-3.85-7.69-6-11.51a14.49,14.49,0,0,0-8.83-6.9C541.41,222.7,532.35,224.26,533,231.25Z" transform="translate(-14.19 -15.72)" fill="#ff681c"></path><path d="M544.88,272.65s-7.55,20.42-9,21.91,14.54,10.52,14.54,10.52,10.45-19.85,10-28.46S550.77,264.54,544.88,272.65Z" transform="translate(-14.19 -15.72)" fill="#f6296b"></path><path d="M550.38,302.31s-.56,6.58-8.62,6.46-35.87-.5-35.87-.5c-2.44-1.26-5.79-1.47-7.61-3.52-.87-1-1.32-2.28-2.16-3.29a7.35,7.35,0,0,0-4.37-2.33,22.24,22.24,0,0,0-5-.13,2.09,2.09,0,0,1,0-2.73,4.89,4.89,0,0,1,2.61-1.41,16.09,16.09,0,0,1,12.15,1.72,13.94,13.94,0,0,0,3.43,1.81,9.31,9.31,0,0,0,2.74.16c10.34-.5,20.54-2.7,30.88-3.16a17.93,17.93,0,0,1,7.19.75A8.49,8.49,0,0,1,550.38,302.31Z" transform="translate(-14.19 -15.72)" fill="#ffbaa8"></path><rect x="491.57" y="335.09" width="50.32" height="12.03" rx="1.98" fill="#473f47"></rect><polygon points="501.44 347.11 492.93 347.11 488.68 386.46 497.19 386.46 501.44 347.11" fill="#473f47"></polygon><polygon points="539.06 347.11 530.56 347.11 536.19 386.46 544.69 386.46 539.06 347.11" fill="#473f47"></polygon><polygon points="557.22 269.09 549.59 269.09 532.37 335.38 540 335.38 557.22 269.09" fill="#473f47"></polygon><rect x="389.1" y="381.87" width="200.93" height="33.66" fill="#fff"></rect><rect x="389.1" y="381.87" width="200.93" height="33.66" fill="url(#linear-gradient-11)"></rect><rect x="389.1" y="381.87" width="200.93" height="27.62" fill="#fff"></rect><rect x="415.78" y="288.78" width="5.08" height="93.09" fill="#fff"></rect><circle cx="408.02" cy="351.87" r="12.84" fill="#f4bd5c"></circle><rect x="473.17" y="288.78" width="5.08" height="93.09" fill="#fff"></rect><path d="M218.63,524.36l.88,8.84,5.57,1,2.5-2.2,4.25,3.37h16.71s4.25-7.33-5-9.82l-9.23-2.49Z" transform="translate(-14.19 -15.72)" fill="#212642"></path><path d="M186,524.36l.88,8.84,5.57,1,2.49-2.2,4.26,3.37H215.9s4.25-7.33-5-9.82l-9.23-2.49Z" transform="translate(-14.19 -15.72)" fill="#212642"></path><polygon points="199.75 413.26 207.23 407.2 212.51 507.37 204.44 508.64 199.75 413.26" fill="url(#linear-gradient-12)"></polygon><path d="M210.58,389.63c-.61.5-1.23,1-1.86,1.46a4.49,4.49,0,0,1-2.37,1.11,4.68,4.68,0,0,1-1.75-.42c-11.74-4.58-23.28-9.75-34.51-15.47-4.7-2.42-9.87-5.59-10.87-10.77a17.14,17.14,0,0,1,.13-5.44,156.71,156.71,0,0,1,10.22-38.25c1.42-3.48,3.19-10.17,6.9-12.42l0,0,.43-.23.53-.25a11.19,11.19,0,0,1,10.72,7.42s-17.78,36.4-17,41.88,38.09,23.3,38.09,23.3Z" transform="translate(-14.19 -15.72)" fill="url(#linear-gradient-13)"></path><path d="M227,384.5a6.85,6.85,0,0,1,2.67,1.33,2.63,2.63,0,0,1,.85,2.7,9.91,9.91,0,0,1-1,1.59c-.49.87-.55,1.92-1,2.81a6.32,6.32,0,0,1-3.72,2.7c-4.45,1.6-9.87,1.83-13.46-1.25-2.62-2.24-7.85-11.46-2.08-12.85,2.14-.51,5.16.46,7.29.76A65.16,65.16,0,0,1,227,384.5Z" transform="translate(-14.19 -15.72)" fill="#ffbaa8"></path><path d="M289.5,306.73a2.77,2.77,0,0,0,1.39-2.38,2.23,2.23,0,0,0-.32-.87,3.79,3.79,0,0,0-4.79-1.46,7.37,7.37,0,0,0-2.62,2.75,31.57,31.57,0,0,0-2.92,4.39c-.59,1.34.52.89,1.49.52C284.27,308.73,287.27,308.34,289.5,306.73Z" transform="translate(-14.19 -15.72)" fill="#ffbaa8"></path><path d="M92.25,537.93q19.13.27,38.24.19a3.43,3.43,0,0,0-2.09-2.49,10.48,10.48,0,0,0-4.46-.64q-7.23.06-14.44.82a86.12,86.12,0,0,1-9.21.72c-2.86,0-5.7-.4-8.55-.59-2.22-.15-4.44-.18-6.65-.18-.9,0-4.89-.47-4.5.74.46,1.42,4.1,1.17,5.15,1.24C87.91,537.87,90.08,537.9,92.25,537.93Z" transform="translate(-14.19 -15.72)" fill="url(#linear-gradient-14)"></path><rect x="409.82" y="284.73" width="71.24" height="8.09" fill="#f6296b"></rect><circle cx="415.78" cy="172.18" r="10.4" fill="#f4bd5c"></circle><circle cx="489.56" cy="177.67" r="10.4" fill="#f4bd5c"></circle><circle cx="331.18" cy="233.28" r="6.03" fill="#f4bd5c"></circle><circle cx="310.26" cy="258.94" r="6.03" fill="#f4bd5c"></circle><circle cx="310.26" cy="258.94" r="4.26" fill="#d39d47"></circle><circle cx="319.12" cy="250.34" r="6.03" fill="#f4bd5c"></circle><circle cx="344.53" cy="250.34" r="6.03" fill="#f4bd5c"></circle><circle cx="354.89" cy="216.72" r="6.03" fill="#f4bd5c"></circle><circle cx="378.93" cy="228.78" r="6.03" fill="#f4bd5c"></circle><circle cx="370.45" cy="183.69" r="6.03" fill="#f4bd5c"></circle><circle cx="577.19" cy="206.55" r="12.84" fill="#f4bd5c"></circle><circle cx="577.19" cy="206.55" r="10.04" fill="#d39d47"></circle><circle cx="592.37" cy="339.03" r="12.84" fill="#f4bd5c"></circle><circle cx="435.61" cy="219.39" r="12.84" fill="#f4bd5c"></circle><circle cx="393.71" cy="280.28" r="12.84" fill="#f4bd5c"></circle><circle cx="393.71" cy="280.28" r="12.84" fill="#f4bd5c"></circle><circle cx="393.71" cy="280.28" r="9.08" fill="#d39d47"></circle><circle cx="435.61" cy="219.39" r="9.08" fill="#d39d47"></circle><circle cx="489.56" cy="177.67" r="7.36" fill="#d39d47"></circle><circle cx="415.78" cy="172.18" r="7.36" fill="#d39d47"></circle><circle cx="408.02" cy="351.87" r="8.71" fill="#d39d47"></circle><path d="M450.43,229.19c-.51,3.31-.95,6.63-1.34,10" transform="translate(-14.19 -15.72)" fill="none" stroke="#f4bd5c" stroke-linecap="round" stroke-miterlimit="10" stroke-width="1.04"></path><path d="M452.39,233.09a3.1,3.1,0,0,0-2.68-2.42,1.57,1.57,0,0,0-1.21.32,1.73,1.73,0,0,0-.43.84,3.93,3.93,0,0,0-.06,1.41,1.44,1.44,0,0,0,.22.65c.34.46,1,.47,1.54.65a2.32,2.32,0,0,1,1.53,2.11,1.29,1.29,0,0,1-.12.58,1.47,1.47,0,0,1-.44.42,3.25,3.25,0,0,1-2.11.73,1.52,1.52,0,0,1-1.43-1.47" transform="translate(-14.19 -15.72)" fill="none" stroke="#f4bd5c" stroke-linecap="round" stroke-miterlimit="10" stroke-width="1.04"></path><path d="M504.31,188.83q-.65,4.23-1.13,8.47" transform="translate(-14.19 -15.72)" fill="none" stroke="#f4bd5c" stroke-linecap="round" stroke-miterlimit="10" stroke-width="0.88"></path><path d="M506,192.15a2.64,2.64,0,0,0-2.28-2.06,1.35,1.35,0,0,0-1,.27,1.42,1.42,0,0,0-.37.72,3.23,3.23,0,0,0-.05,1.2,1.1,1.1,0,0,0,.19.55c.28.39.84.4,1.3.55a2,2,0,0,1,1.3,1.79,1,1,0,0,1-.1.49,1.16,1.16,0,0,1-.37.36,2.73,2.73,0,0,1-1.79.62,1.27,1.27,0,0,1-1.22-1.25" transform="translate(-14.19 -15.72)" fill="none" stroke="#f4bd5c" stroke-linecap="round" stroke-miterlimit="10" stroke-width="0.88"></path><path d="M592,216.91c-.51,3.31-1,6.64-1.34,10" transform="translate(-14.19 -15.72)" fill="none" stroke="#f4bd5c" stroke-linecap="round" stroke-miterlimit="10" stroke-width="1.04"></path><path d="M594,220.82a3.1,3.1,0,0,0-2.68-2.42,1.56,1.56,0,0,0-1.21.31,1.77,1.77,0,0,0-.43.85,3.72,3.72,0,0,0-.06,1.41,1.36,1.36,0,0,0,.22.65c.34.46,1,.47,1.54.65a2.3,2.3,0,0,1,1.53,2.11,1.11,1.11,0,0,1-.13.57,1.36,1.36,0,0,1-.43.43,3.3,3.3,0,0,1-2.11.73,1.53,1.53,0,0,1-1.43-1.47" transform="translate(-14.19 -15.72)" fill="none" stroke="#f4bd5c" stroke-linecap="round" stroke-miterlimit="10" stroke-width="1.04"></path><circle cx="592.37" cy="339.03" r="10.04" fill="#d39d47"></circle><path d="M607.22,349.39q-.76,5-1.34,10" transform="translate(-14.19 -15.72)" fill="none" stroke="#f4bd5c" stroke-linecap="round" stroke-miterlimit="10" stroke-width="1.04"></path><path d="M609.18,353.3a3.11,3.11,0,0,0-2.69-2.42,1.35,1.35,0,0,0-1.63,1.16,3.93,3.93,0,0,0-.07,1.41,1.45,1.45,0,0,0,.23.65c.34.46,1,.47,1.54.65a2.32,2.32,0,0,1,1.53,2.11,1.17,1.17,0,0,1-.13.58,1.56,1.56,0,0,1-.43.42,3.28,3.28,0,0,1-2.11.73,1.5,1.5,0,0,1-1.43-1.47" transform="translate(-14.19 -15.72)" fill="none" stroke="#f4bd5c" stroke-linecap="round" stroke-miterlimit="10" stroke-width="1.04"></path><path d="M430.63,182.54c-.51,3.31-1,6.64-1.34,10" transform="translate(-14.19 -15.72)" fill="none" stroke="#f4bd5c" stroke-linecap="round" stroke-miterlimit="10" stroke-width="1.04"></path><path d="M432.59,186.44a3.09,3.09,0,0,0-2.68-2.41,1.56,1.56,0,0,0-1.21.31,1.72,1.72,0,0,0-.43.85,3.72,3.72,0,0,0-.06,1.41,1.36,1.36,0,0,0,.22.65c.34.46,1,.47,1.54.65A2.3,2.3,0,0,1,431.5,190a1.14,1.14,0,0,1-.13.57,1.36,1.36,0,0,1-.43.43,3.36,3.36,0,0,1-2.11.73,1.51,1.51,0,0,1-1.43-1.48" transform="translate(-14.19 -15.72)" fill="none" stroke="#f4bd5c" stroke-linecap="round" stroke-miterlimit="10" stroke-width="1.04"></path><path d="M408.56,290.64c-.51,3.31-1,6.64-1.34,10" transform="translate(-14.19 -15.72)" fill="none" stroke="#f4bd5c" stroke-linecap="round" stroke-miterlimit="10" stroke-width="1.04"></path><path d="M410.52,294.55a3.11,3.11,0,0,0-2.69-2.42,1.54,1.54,0,0,0-1.2.31,1.68,1.68,0,0,0-.43.85,3.93,3.93,0,0,0-.07,1.41,1.49,1.49,0,0,0,.23.65c.34.46,1,.47,1.54.65a2.3,2.3,0,0,1,1.53,2.11,1.11,1.11,0,0,1-.13.57,1.47,1.47,0,0,1-.43.43,3.3,3.3,0,0,1-2.11.73,1.51,1.51,0,0,1-1.43-1.47" transform="translate(-14.19 -15.72)" fill="none" stroke="#f4bd5c" stroke-linecap="round" stroke-miterlimit="10" stroke-width="1.04"></path><path d="M424.64,362.61c-.51,3.31-.95,6.63-1.34,10" transform="translate(-14.19 -15.72)" fill="none" stroke="#f4bd5c" stroke-linecap="round" stroke-miterlimit="10" stroke-width="1.04"></path><path d="M426.6,366.51a3.1,3.1,0,0,0-2.68-2.42,1.54,1.54,0,0,0-1.2.32,1.58,1.58,0,0,0-.43.84,3.73,3.73,0,0,0-.07,1.41,1.44,1.44,0,0,0,.22.65c.34.46,1,.47,1.54.65a2.32,2.32,0,0,1,1.53,2.11,1.26,1.26,0,0,1-.12.58,1.36,1.36,0,0,1-.44.42,3.25,3.25,0,0,1-2.11.73,1.52,1.52,0,0,1-1.43-1.47" transform="translate(-14.19 -15.72)" fill="none" stroke="#f4bd5c" stroke-linecap="round" stroke-miterlimit="10" stroke-width="1.04"></path></svg>